<?xml version="1.0" encoding="UTF-8"?><svg width="1280px" height="900px" viewBox="0 0 1280 900" version="1.1" xmlns="http://www.w3.org/2000/svg" xmlns:xlink="http://www.w3.org/1999/xlink"><!--Generator: Sketch 40.3 (33839) - http://www.bohemiancoding.com/sketch--><title>foreground</title><desc>Created with Sketch.</desc><defs/><g id="Page-1" stroke="none" stroke-width="1" fill="none" fill-rule="evenodd"><g id="foreground" fill="#000000"><g id="Group"><path d="M332.061458,51.5706775 C348.974193,46.6524927 375.022517,58.7256023 386.549238,62.6506594 C398.075958,66.5757165 417.832638,61.558219 406.758733,70.6000864 C403.04452,73.632749 401.2329,76.112142 400.273604,78.7280766 C408.395078,71.8760748 419.421449,67.0501621 430.931778,64.8623383 C447.488147,61.7153894 478.784559,82.8793108 478.784559,82.8793108 C478.784559,82.8793108 477.350124,108.682975 470.001046,120.924882 C468.008061,124.244746 474.715338,120.166592 474.715338,120.166592 L501.182853,112.306928 L502.991293,119.982347 L514.746149,116.912179 L523.788346,115.377095 L583.543202,81.3770953 L588.0643,90.5875982 L596.202277,79.8420115 L649.945747,47.447263 L651.700603,55.3770953 L672.551239,42.8420115 L720.241125,31.7455867 L769.068989,59.3770953 L769.068989,71.8624437 L701.674481,133.982347 L710.716678,132.447263 L715.429337,136.166592 L730.609511,133.982347 L734.41795,142.306928 L745.077026,133.982347 L750.693905,142.306928 L757.023443,136.166592 L779.437374,137.052514 L812.575352,137.377095 L824.330208,134.306928 L829.755526,131.23676 L834.276624,125.096425 L845.127261,129.701676 L853.265238,122.026257 L865.924313,125.096425 L869.541192,135.842012 L879.487609,137.377095 L881.667783,140.912179 L884.380442,148.587598 L891.560616,150.727933 L895.177495,143.052514 L902.411253,135.377095 L910.54923,139.982347 L914.166109,132.306928 L921.399866,139.982347 L934.963161,139.982347 L939.48426,135.377095 L1237.24046,129.377095 L1248.99531,129.377095 L1253.51641,138.587598 L1261.65439,127.842012 L1280,129.377095 L1280,900 L0,900 L0,144.727933 L13.5632954,133.982347 L26.2223711,133.982347 L35.264568,132.447263 L55.1574012,133.982347 L69.6249163,133.982347 L101.236375,135.151242 C99.9752003,129.799481 98.51732,126.243835 91.3619002,121.848334 C78.5553719,113.981416 99.767952,116.360892 111.135867,110.562653 C117.884825,107.120327 129.515461,99.9193196 141.671653,95.1988047 C135.771393,82.0555864 132.792696,68.4580385 133.85849,55.7381344 C135.94976,30.7794823 145.47868,28.3626826 135.716993,11.2959206 C125.955306,-5.77084141 148.848353,10.4082663 165.582153,11.0497572 C182.315954,11.6912482 221.710034,9.02828513 241.000639,23.6782475 C242.105722,24.5174861 243.219196,25.4026963 244.336079,26.3305489 C256.31863,13.9476633 271.829477,4.54788161 280.642469,5.46189151 C292.204175,6.6609751 321.091308,0.183792481 321.091308,0.183792481 L311.027644,28.3488434 L325.494056,37.7434409 C325.494056,37.7434409 326.68774,44.5368186 326.188681,53.5561344 C328.192897,52.7875139 330.161175,52.1232756 332.061458,51.5706775 Z" id="Combined-Shape"/><path d="M1140.84899,141.224045 C1141.9023,142.078397 1143.06362,142.445494 1144.2896,142.433653 C1143.47162,143.347409 1147.37803,141.714401 1147.37803,141.714401 C1151.22045,140.075687 1155.31933,135.903304 1158.56077,131.979249 C1158.72556,132.732282 1158.83084,133.15936 1158.83084,133.15936 C1158.83084,133.15936 1159.94896,133.499705 1161.71691,133.944842 C1161.71691,133.944842 1289.05167,145.993114 1262.77489,140.837429 C1257.42482,137.665954 1252.36333,135.338128 1247.8575,134.359531 C1234.67192,131.495823 1205.6288,129.495196 1189.61094,128.969162 C1192.40191,125.801964 1194.61488,122.022237 1195.9077,118.69696 C1198.55364,111.891267 1194.49715,100.69733 1193.28873,95.795239 C1192.08032,90.8931482 1194.87002,82.9166765 1190.72816,87.1618358 C1190.23107,87.6713208 1189.77209,88.0827785 1189.33641,88.4149336 C1186.53151,89.9234325 1184.30455,88.5359372 1178.20808,89.6639514 C1170.55723,91.079571 1163.25739,97.2483431 1158.57736,104.916301 C1157.00044,107.499997 1156.53241,111.423029 1156.60503,115.489492 C1156.58233,118.009175 1156.77671,120.620047 1157.05902,123.036766 L1135.17044,121.317131 C1134.71846,117.968782 1134.38329,114.708083 1134.14501,112.024024 C1140.90494,108.399909 1148.75713,100.88666 1149.30744,93.3421489 C1149.76994,87.0014208 1145.92406,77.1568012 1144.68501,74.1766621 C1144.92147,73.667389 1145.03607,73.3879385 1145.03607,73.3879385 C1144.30851,73.2925221 1143.41718,73.1854827 1141.94344,73.067941 C1138.9165,72.8130653 1134.08774,72.5573882 1129.38823,72.9438539 C1124.63713,73.2939924 1119.89681,74.2328253 1117.11488,76.3690023 C1111.22031,80.8953051 1106.54941,87.0084811 1104.78795,93.2472613 C1103.05261,88.2442069 1100.36285,83.7483344 1096.57457,81.0688409 C1088.54135,75.3868479 1070.88589,73.2150223 1070.88589,73.2150223 C1070.39897,73.5581221 1054.43498,94.0450609 1055.76757,105.550808 C1055.81147,105.929806 1055.85945,106.308336 1055.9115,106.686215 C1042.20848,104.656096 1029.04741,103.370589 1018.84681,103.696096 C974.750234,105.103246 888.369055,130.146511 888.369055,130.146511 C888.369055,130.146511 943.415021,128.984629 959.084375,124.188789 C970.251108,120.771044 985.662369,120.386736 996.457359,121.46508 C977.42389,123.345664 960.483782,125.838008 950.819056,129.123071 C918.320611,140.169371 1034.48393,153.716785 1080.73506,139.880631 C1081.69861,140.527025 1082.51352,141.356339 1083.25751,142.675601 C1083.48954,143.153834 1124.77322,142.562994 1124.77322,142.562994 C1132.12789,142.57172 1140.41588,143.395564 1140.84899,141.224045 Z M1102.81921,121.88439 C1103.4922,120.797337 1104.12096,119.692735 1104.68124,118.581569 C1106.77978,118.856 1108.83762,119.132382 1110.82117,119.404177 L1107.52297,119.14506 C1107.52297,119.14506 1115.45593,121.464145 1123.65197,125.928922 L1122.85266,127.562592 C1119.75725,126.583686 1116.6375,125.435836 1114.87949,124.339038 C1112.65954,122.954039 1108.36029,122.818407 1103.61878,123.655171 C1103.43193,123.077562 1103.15351,122.479706 1102.81921,121.88439 Z M1105.74956,116.240445 C1112.82504,117.837673 1118.88933,119.292946 1123.33016,120.386922 L1126.25124,120.616411 L1129.8304,113.301135 C1123.44463,114.281342 1115.37944,112.522337 1111.42225,112.047118 C1110.03412,111.880417 1108.44936,112.046747 1106.96207,112.276167 C1106.7068,113.583568 1106.28893,114.9112 1105.74956,116.240445 Z M1067.81385,134.438994 C1068.58592,134.330041 1069.35466,134.222149 1070.11969,134.115347 C1070.03193,134.050601 1069.94454,133.985186 1069.8575,133.919108 C1069.18488,134.089401 1068.50355,134.26273 1067.81385,134.438994 Z" id="Combined-Shape"/></g></g></g></svg>