<?xml version="1.0" encoding="UTF-8"?>
<svg width="2700px" height="700px" viewBox="0 0 2700 700" version="1.1" xmlns="http://www.w3.org/2000/svg" xmlns:xlink="http://www.w3.org/1999/xlink">
    <!-- Generator: Sketch 40.3 (33839) - http://www.bohemiancoding.com/sketch -->
    <title>foreground</title>
    <desc>Created with Sketch.</desc>
    <defs></defs>
    <g id="Page-1" stroke="none" stroke-width="1" fill="none" fill-rule="evenodd">
        <g id="foreground" fill="#000000">
            <polygon id="log" points="0 700 0 53.7279335 13.5632954 42.9823468 26.2223711 42.9823468 35.264568 41.447263 37.9772271 29.1665925 55.1574012 42.9823468 56.9658406 35.3069277 69.6249163 42.9823468 73.241795 35.3069277 79.5713329 29.1665925 103.985265 46.0525144 112.123242 38.3770953 128.399196 42.9823468 123.878098 35.3069277 129.303416 32.2367601 133.824514 26.0964248 144.675151 30.7016763 152.813128 23.0262572 165.472204 26.0964248 169.089082 36.8420115 179.035499 38.3770953 189.886135 42.9823468 196.215673 39.9121792 198.928332 47.5875982 216.108506 53.7279335 219.725385 46.0525144 226.959143 38.3770953 235.09712 42.9823468 238.713999 35.3069277 245.947756 42.9823468 259.511052 42.9823468 264.03215 38.3770953 294.77562 35.3069277 309.243135 29.1665925 312.860013 33.7718439 325.519089 23.0262572 327.327528 27.6315087 331.848627 21.4911734 335.465506 26.0964248 353.5499 24.561341 357.166778 18.4210058 368.017415 18.4210058 370.730074 12.2806705 382.48493 19.9560896 392.431346 0 400.569324 3.07016763 416.845278 15.3508381 421.366376 24.561341 429.504354 23.0262572 448.492967 46.0525144 454.822505 36.8420115 467.481581 39.9121792 474.715338 29.1665925 489.182853 35.3069277 490.991293 42.9823468 502.746149 39.9121792 511.788346 38.3770953 523.543202 38.3770953 528.0643 47.5875982 536.202277 36.8420115 566.945747 41.447263 578.700603 38.3770953 589.551239 36.8420115 630.241125 10.7455867 634.762224 38.3770953 679.068989 38.3770953 679.068989 50.8624437 689.015405 42.9823468 701.674481 42.9823468 710.716678 41.447263 713.429337 29.1665925 730.609511 42.9823468 732.41795 35.3069277 745.077026 42.9823468 748.693905 35.3069277 755.023443 29.1665925 779.437374 46.0525144 787.575352 38.3770953 803.851306 42.9823468 799.330208 35.3069277 804.755526 32.2367601 809.276624 26.0964248 820.127261 30.7016763 828.265238 23.0262572 840.924313 26.0964248 844.541192 36.8420115 854.487609 38.3770953 865.338245 42.9823468 871.667783 39.9121792 874.380442 47.5875982 891.560616 53.7279335 895.177495 46.0525144 902.411253 38.3770953 910.54923 42.9823468 914.166109 35.3069277 921.399866 42.9823468 934.963161 42.9823468 939.48426 38.3770953 970.227729 35.3069277 984.695244 49.1665925 988.312123 33.7718439 1000.9712 43.0262572 1002.77964 47.6315087 1007.30074 41.4911734 1010.91762 46.0964248 1029.00201 44.561341 1032.61889 38.4210058 1043.46952 38.4210058 1046.18218 32.2806705 1057.93704 39.9560896 1067.88346 20 1076.02143 23.0701676 1092.29739 35.3508381 1096.81849 44.561341 1104.95646 43.0262572 1123.94508 46.0525144 1130.27461 36.8420115 1142.93369 39.9121792 1150.16745 29.1665925 1164.63496 35.3069277 1166.4434 42.9823468 1178.19826 39.9121792 1187.24046 38.3770953 1198.99531 38.3770953 1203.51641 47.5875982 1211.65439 36.8420115 1242.39786 41.447263 1254.15271 38.3770953 1265.00335 36.8420115 1305.69324 10.7455867 1310.21433 38.3770953 1354.5211 38.3770953 1354.5211 46.564209 1359.0422 42.9823468 1371.70127 42.9823468 1380.74347 41.447263 1383.45613 29.1665925 1400.6363 42.9823468 1402.44474 35.3069277 1415.10382 42.9823468 1418.7207 35.3069277 1425.05023 29.1665925 1449.46417 46.0525144 1457.60214 38.3770953 1473.8781 42.9823468 1469.357 35.3069277 1474.78232 32.2367601 1479.30342 26.0964248 1490.15405 30.7016763 1498.29203 23.0262572 1510.95111 26.0964248 1514.56798 36.8420115 1524.5144 38.3770953 1535.36504 42.9823468 1541.69457 39.9121792 1544.40723 47.5875982 1561.58741 53.7279335 1565.20429 46.0525144 1572.43804 38.3770953 1580.57602 42.9823468 1584.1929 35.3069277 1591.42666 42.9823468 1604.98995 42.9823468 1609.51105 38.3770953 1640.25452 45.3069277 1654.72204 39.1665925 1658.33891 43.7718439 1670.99799 33.0262572 1672.80643 37.6315087 1677.32753 31.4911734 1680.94441 36.0964248 1699.0288 34.561341 1702.64568 28.4210058 1713.49632 28.4210058 1716.20898 22.2806705 1727.96383 29.9560896 1737.91025 10 1746.04823 13.0701676 1762.32418 25.3508381 1766.84528 34.561341 1774.98326 33.0262572 1793.97187 56.0525144 1800.30141 46.8420115 1812.96048 39.9121792 1820.19424 29.1665925 1834.66175 35.3069277 1836.47019 42.9823468 1848.22505 39.9121792 1857.26725 38.3770953 1869.0221 38.3770953 1873.5432 47.5875982 1881.68118 36.8420115 1912.42465 41.447263 1924.1795 38.3770953 1935.03014 36.8420115 1975.72003 10.7455867 1980.24113 38.3770953 2024.54789 38.3770953 2024.54789 50.8624437 2034.49431 42.9823468 2047.15338 42.9823468 2056.19558 41.447263 2058.90824 29.1665925 2076.08841 42.9823468 2077.89685 35.3069277 2090.55593 42.9823468 2094.17281 35.3069277 2100.50234 29.1665925 2124.91628 46.0525144 2133.05425 38.3770953 2149.33021 42.9823468 2144.80911 35.3069277 2150.23443 32.2367601 2154.75553 26.0964248 2165.60616 30.7016763 2173.74414 23.0262572 2186.40322 26.0964248 2190.02009 36.8420115 2199.96651 38.3770953 2210.81715 42.9823468 2217.14668 39.9121792 2219.85934 47.5875982 2237.03952 53.7279335 2240.6564 46.0525144 2247.89015 38.3770953 2256.02813 42.9823468 2259.64501 35.3069277 2266.87877 42.9823468 2280.44206 42.9823468 2284.96316 38.3770953 2315.70663 35.3069277 2330.17415 29.1665925 2333.79102 33.7718439 2346.4501 23.0262572 2348.25854 27.6315087 2352.77964 21.4911734 2356.39652 26.0964248 2374.48091 24.561341 2378.09779 18.4210058 2388.94843 18.4210058 2391.66109 12.2806705 2403.41594 19.9560896 2413.36236 0 2421.50033 3.07016763 2437.77629 15.3508381 2442.29739 24.561341 2450.43537 23.0262572 2469.42398 46.0525144 2475.75352 36.8420115 2488.41259 39.9121792 2495.64635 29.1665925 2510.11386 35.3069277 2511.9223 42.9823468 2523.67716 39.9121792 2532.71936 38.3770953 2544.47421 38.3770953 2548.99531 47.5875982 2557.13329 36.8420115 2587.87676 41.447263 2599.63161 38.3770953 2610.48225 36.8420115 2651.17214 10.7455867 2655.69324 38.3770953 2700 38.3770953 2700 700"></polygon>
        </g>
    </g>
</svg>