<?xml version="1.0" encoding="UTF-8"?>
<svg width="1280px" height="1200px" viewBox="0 0 1280 1200" version="1.1" xmlns="http://www.w3.org/2000/svg" xmlns:xlink="http://www.w3.org/1999/xlink">
    <!-- Generator: Sketch 41.1 (35376) - http://www.bohemiancoding.com/sketch -->
    <title>foreground</title>
    <desc>Created with Sketch.</desc>
    <defs></defs>
    <g id="Page-1" stroke="none" stroke-width="1" fill="none" fill-rule="evenodd">
        <g id="foreground" fill="#000000">
            <g id="Group" transform="translate(-41.000000, 0.000000)">
                <path d="M379.554582,61.6903567 C396.467316,56.772172 422.515641,48.8452816 434.042361,52.7703387 C445.569081,56.6953958 465.325762,51.6778982 454.251856,60.7197656 C450.537644,63.7524282 448.726023,66.2318213 447.766728,68.8477559 C455.888202,61.9957541 466.914573,57.1698413 478.424902,54.9820175 C494.98127,51.8350686 526.277682,32.9989901 526.277682,32.9989901 C526.277682,32.9989901 524.843248,58.802654 517.49417,71.0445613 C515.501185,74.364425 522.208462,70.2862717 522.208462,70.2862717 L548.675977,62.426607 L550.484416,70.102026 L562.239272,67.0318584 L571.281469,65.4967746 L631.036325,51.4967746 L635.557423,60.7072775 L643.695401,49.9616908 L686.43887,40.5669422 L688.193726,48.4967746 L709.044362,35.9616908 L756.734249,24.8652659 L805.562112,52.4967746 L805.562112,64.982123 L749.167604,84.102026 L758.209801,82.5669422 L762.92246,86.2862717 L778.102634,84.102026 L781.911074,92.426607 L792.570149,84.102026 L798.187028,92.426607 L804.516566,86.2862717 L826.930498,87.1721937 L860.068475,87.4967746 L871.823331,84.426607 L877.248649,81.3564393 L881.769748,75.2161041 L892.620384,79.8213555 L900.758361,72.1459365 L913.417437,75.2161041 L917.034316,85.9616908 L926.980732,87.4967746 L929.160906,91.0318584 L931.873565,98.7072775 L939.05374,100.847613 L942.670618,93.1721937 L949.904376,85.4967746 L958.042353,90.102026 L961.659232,82.426607 L968.892989,90.102026 L982.456285,90.102026 L986.977383,85.4967746 L1284.73358,79.4967746 L1296.48843,79.4967746 L1301.00953,88.7072775 L1309.14751,77.9616908 L1340.36902,79.9464107 L1300.48795,1221.99079 L21.2676883,1177.31943 L59.6571347,77.9895198 L74.0295898,75.1075086 L83.0717868,73.5724248 L102.96462,75.1075086 L117.432135,75.1075086 L149.043594,76.2764037 C147.782419,70.9246432 146.324539,67.3689964 139.169119,62.9734957 C126.362591,55.1065774 147.575171,57.4860535 158.943086,51.6878148 C165.692044,48.2454888 177.32268,81.0444814 189.478872,76.3239666 C183.578612,63.1807482 180.599915,69.5832003 181.665708,56.8632962 C183.756979,31.9046441 192.971803,59.4823619 183.210116,42.4155999 C173.44843,25.3488378 196.341476,41.5279455 213.075277,42.1694365 C229.809077,42.8109275 247.203157,49.1479644 266.493763,63.7979267 C267.598846,64.6371654 268.712319,65.5223755 269.829202,66.4502281 C281.811753,54.0673425 297.3226,44.6675609 306.135592,45.5815708 C317.697299,46.7806544 346.584432,40.3034717 346.584432,40.3034717 L336.520768,68.4685227 L372.987179,47.8631202 C372.987179,47.8631202 374.180864,54.6564978 373.681804,63.6758136 C375.68602,62.9071931 377.654298,62.2429548 379.554582,61.6903567 Z" id="Combined-Shape" transform="translate(680.818352, 623.428026) rotate(-2.000000) translate(-680.818352, -623.428026) "></path>
                <path d="M1181.47994,68.4780075 C1182.53324,69.3323598 1183.69457,69.6994568 1184.92054,69.6876164 C1184.10256,70.601372 1188.00898,68.9683635 1188.00898,68.9683635 C1191.8514,67.3296504 1195.95028,63.1572667 1199.19172,59.2332118 C1199.3565,59.9862452 1199.46178,60.4133229 1199.46178,60.4133229 C1199.46178,60.4133229 1200.57991,60.7536677 1202.34785,61.1988049 C1202.34785,61.1988049 1329.68262,73.2470772 1303.40583,68.0913916 C1298.05576,64.9199166 1292.99427,62.5920907 1288.48845,61.6134938 C1275.30287,58.749786 1246.25974,56.7491593 1230.24189,56.2231247 C1233.03285,53.0559273 1235.24583,49.2761996 1236.53864,45.950923 C1239.18459,39.1452297 1235.12809,27.9512927 1233.91968,23.0492019 C1232.71127,18.1471111 1235.50097,10.1706395 1231.3591,14.4157988 C1230.86202,14.9252838 1230.40304,15.3367414 1229.96736,15.6688965 C1227.16246,17.1773954 1224.93549,15.7899002 1218.83903,16.9179143 C1211.18817,18.3335339 1203.88833,24.502306 1199.20831,32.1702639 C1197.63139,34.7539595 1197.16335,38.6769923 1197.23597,42.7434554 C1197.21327,45.2631383 1197.40766,47.8740098 1197.68997,50.2907288 L1175.80138,48.5710937 C1175.34941,45.222745 1175.01423,41.9620458 1174.77595,39.2779865 C1181.53589,35.6538724 1189.38808,28.1406231 1189.93838,20.5961119 C1190.40088,14.2553837 1186.55501,4.41076418 1185.31596,1.43062507 C1185.55242,0.921351949 1185.66701,0.64190145 1185.66701,0.64190145 C1184.93945,0.546485073 1184.04812,0.439445676 1182.57438,0.321903944 C1179.54745,0.0670282921 1174.71869,-0.188648882 1170.01918,0.197816834 C1165.26808,0.547955348 1160.52775,1.48678821 1157.74582,3.62296523 C1151.85125,8.14926804 1147.18035,14.2624441 1145.4189,20.5012242 C1143.68355,15.4981698 1140.99379,11.0022974 1137.20552,8.32280383 C1129.1723,2.64081085 1111.51684,0.468985216 1111.51684,0.468985216 C1111.02991,0.812085096 1095.06593,21.2990239 1096.39852,32.8047706 C1096.44241,33.1837694 1096.4904,33.5622985 1096.54244,33.9401782 C1082.83942,31.9100588 1069.67836,30.6245516 1059.47775,30.9500592 C1015.38118,32.3572086 929,57.4004736 929,57.4004736 C929,57.4004736 984.045966,56.2385917 999.71532,51.4427523 C1010.88205,48.0250072 1026.29331,47.6406993 1037.0883,48.7190434 C1018.05484,50.5996269 1001.11473,53.0919707 991.450002,56.3770343 C958.951556,67.4233342 1075.11487,80.9707479 1121.366,67.1345939 C1122.32955,67.780988 1123.14446,68.6103024 1123.88845,69.9295641 C1124.12049,70.4077974 1165.40416,69.8169565 1165.40416,69.8169565 C1172.75884,69.8256829 1181.04683,70.6495271 1181.47994,68.4780075 Z M1143.45016,49.1383528 C1144.12314,48.0513004 1144.75191,46.9466977 1145.31218,45.8355323 C1147.41072,46.1099625 1149.46857,46.3863445 1151.45212,46.6581402 L1148.15392,46.3990232 C1148.15392,46.3990232 1156.08687,48.7181075 1164.28292,53.1828854 L1163.48361,54.8165552 C1160.3882,53.8376485 1157.26845,52.689799 1155.51044,51.5930009 C1153.29048,50.2080024 1148.99124,50.0723697 1144.24973,50.9091337 C1144.06288,50.3315251 1143.78445,49.7336687 1143.45016,49.1383528 Z M1146.38051,43.4944078 C1153.45598,45.0916359 1159.52027,46.5469089 1163.9611,47.6408849 L1166.88218,47.8703739 L1170.46135,40.5550982 C1164.07558,41.5353053 1156.01039,39.7763001 1152.0532,39.3010806 C1150.66507,39.1343798 1149.0803,39.3007103 1147.59301,39.5301303 C1147.33775,40.8375313 1146.91987,42.1651632 1146.38051,43.4944078 Z M1108.4448,61.6929572 C1109.21687,61.5840043 1109.98561,61.4761124 1110.75063,61.3693101 C1110.66288,61.3045639 1110.57548,61.2391485 1110.48844,61.173071 C1109.81583,61.3433636 1109.1345,61.5166931 1108.4448,61.6929572 Z" id="Combined-Shape"></path>
            </g>
        </g>
    </g>
</svg>