<?xml version="1.0" encoding="UTF-8"?>
<svg width="30px" height="50px" viewBox="0 0 30 50" version="1.1" xmlns="http://www.w3.org/2000/svg" xmlns:xlink="http://www.w3.org/1999/xlink">
    <!-- Generator: Sketch 41.1 (35376) - http://www.bohemiancoding.com/sketch -->
    <title>mute</title>
    <desc>Created with Sketch.</desc>
    <defs></defs>
    <g id="Page-1" stroke="none" stroke-width="1" fill="none" fill-rule="evenodd">
        <g id="mute" fill="#9DD0E0">
            <path d="M6.04004493,15.0386979 L6.20906536,38.3756694 C6.20906536,41.7154677 6.5783867,44.5127502 6.04004493,46.2781664 C5.50170316,48.0435825 3.85574084,49.0029672 2.57512606,49.0029672 C2.18074308,49.0029672 1.70185664,48.8114863 1.13845238,48.4285187 C0.57504812,48.0455511 1.13845238,49.2577131 1.13845238,34.5134605 C1.13845238,31.6412035 1.51875047,14.6796942 1.09619727,9.36601869 C0.673644077,4.05234322 0.434200859,2.54253571 0.377860433,0.914923407 C0.377860433,0.914923407 3.75118324,-1.04991366 4.68788147,1.61096354 C5.62457969,4.27184075 6.04004493,15.0386979 6.04004493,15.0386979 Z" id="stick3" transform="translate(3.355246, 24.609671) rotate(-180.000000) translate(-3.355246, -24.609671) "></path>
            <path d="M17.8710938,29.0353482 L17.8710938,38.7799101 C17.8710938,45.8648108 17.3781296,48.8327594 14.9554913,48.8327594 C14.5611083,48.8327594 13.363885,49.215727 12.8004808,48.8327594 C12.2370765,48.4497918 13.3920523,36.7933494 13.3920523,22.0490967 C13.3920523,19.1768397 13.1807789,15.0839349 12.7582257,9.7702594 C12.3356725,4.45658393 12.0962292,2.94677642 12.0398888,1.31916411 C12.0398888,1.31916411 15.4132116,-0.645672958 16.3499099,2.01520425 C17.2866081,4.67608146 17.8710938,29.0353482 17.8710938,29.0353482 Z" id="stick2" transform="translate(14.955491, 24.811792) rotate(-180.000000) translate(-14.955491, -24.811792) "></path>
            <path d="M29.2661111,16.7798471 L29.4351315,40.1168186 C29.4351315,47.2017192 30.0515048,49.0925769 27.6288665,49.0925769 C27.2344835,49.0925769 24.7577728,49.9800998 24.4197319,49.0925769 C24.081691,48.2050539 24.9560901,38.1302578 24.9560901,23.3860052 C24.9560901,20.5137482 24.7448166,16.4208433 24.3222634,11.1071679 C23.8997103,5.79349239 23.2658857,2.65607257 23.6039266,2.65607257 C23.9419675,2.65607257 26.6921683,-0.00480463665 27.6288665,2.65607257 C28.5655647,5.31694978 29.2661111,16.7798471 29.2661111,16.7798471 Z" id="stick1" transform="translate(26.506741, 25.480246) rotate(-180.000000) translate(-26.506741, -25.480246) "></path>
        </g>
    </g>
</svg>