<?xml version="1.0" encoding="UTF-8"?>
<svg width="31px" height="51px" viewBox="0 0 31 51" version="1.1" xmlns="http://www.w3.org/2000/svg" xmlns:xlink="http://www.w3.org/1999/xlink">
    <!-- Generator: Sketch 41.1 (35376) - http://www.bohemiancoding.com/sketch -->
    <title>replay</title>
    <desc>Created with Sketch.</desc>
    <defs></defs>
    <g id="Page-1" stroke="none" stroke-width="1" fill="none" fill-rule="evenodd">
        <g id="replay" fill="#9DD0E0">
            <path d="M11.5537109,2.53887428 C10.575672,2.58549827 9.61381883,2.7836659 8.66812956,3.13338112 C6.97395209,3.75051727 5.58130168,5.1034493 4.49013653,7.19221781 C3.54254574,8.97241825 3.06875746,11.9156388 3.06875746,16.0219678 C3.06875746,16.0219678 3.58562257,28.7443914 3.58562257,31.117992 C3.58562257,33.4915926 3.80098088,35.9482323 4.23170397,38.4879849 C4.51885269,40.1732414 4.89931904,41.6567195 5.37311444,42.9384638 C5.84690983,44.2202081 6.52887782,45.3298497 7.41903886,46.2674219 C8.3091999,47.2049942 9.35727702,47.6737732 10.5633017,47.6737732 L14.8469649,47.6737732 C16.0529895,47.6737732 17.1010666,47.2049942 17.9912277,46.2674219 C18.8813887,45.3298497 19.5633567,44.2202081 20.0371521,42.9384638 C20.5109475,41.6567195 20.8914139,40.1732414 21.1785626,38.4879849 C21.5369499,36.3747594 21.7251624,35.8749422 21.7782715,34.3993422 C21.3198727,35.2612971 20.8120528,36.3437325 20.2548098,37.6466519 C18.8621384,40.9029307 18.0940271,43.0941021 17.9504528,44.2202318 L16.9167225,44.545858 C15.7394128,44.545858 15.1507667,44.2609379 15.1507667,43.6910891 C15.1507667,43.3383256 15.5599475,42.5140924 16.3783214,41.2183648 C17.1966952,39.9226372 18.1945221,37.8569664 19.3718318,35.0212903 C19.9174144,33.6645075 20.2548091,32.8334905 20.384026,32.5282144 C20.513243,32.2229382 20.7214227,31.7921662 21.0085714,31.2358852 C21.2957201,30.6796043 21.6115807,29.476418 23.5067528,29.476418 C25.4019249,29.476418 26.2202908,33.8273164 26.9955923,36.0388723 C27.2540262,36.7851029 27.663207,37.8976481 28.223147,39.3765414 C28.783087,40.8554346 29.1133031,41.7441141 29.2138051,42.0426063 C29.3143072,42.3410985 29.4794152,42.683681 29.7091342,43.0703641 C29.9388532,43.4570472 30.0537109,43.7589269 30.0537109,43.9760121 C30.0537109,44.2745043 29.6086371,44.4237482 28.7184761,44.4237482 C27.598596,44.4237482 26.7802344,43.3383382 26.2633667,41.1674857 C26.0336478,40.1770343 25.7465033,38.7219065 25.4019249,36.8020589 C25.2389029,35.893768 25.0116107,35.0576083 24.7200465,34.2935746 C24.7816355,35.8652438 24.7688445,37.6657628 24.4951137,38.8084194 C23.3465189,43.6743006 21.7815818,46.7480672 19.8002556,48.0298116 C19.2833879,48.3621156 18.4865621,48.7003486 17.4097544,49.0445207 C16.3329467,49.3886928 14.282084,50.3264877 11.7968864,50.3264877 C9.31168884,50.3264877 8.30702821,49.3886928 7.2302205,49.0445207 C6.15341279,48.7003486 6.12687865,48.3621156 5.61001095,48.0298116 C3.62868476,46.7480672 2.06374769,43.6743006 0.9151528,38.8084194 C0.340855353,36.4110828 0.0537109375,31.9725163 0.0537109375,25.4925868 L0.0537109375,17.1612904 C0.0537109375,13.9806656 0.312140912,11.108652 0.829008614,8.54516338 C1.14487221,6.978587 1.67608938,5.60785322 2.42267606,4.43292094 C3.16926274,3.25798865 3.96608849,2.41537309 4.81317723,1.90504896 C5.66026596,1.39472484 6.5863067,1.00902053 7.59132723,0.747924468 C7.98174098,0.646498189 8.82280218,0.527163121 9.70547577,0.4191387 C9.98700756,0.295604082 14.1204143,0.295604082 14.4019461,0.4191387 C15.2846197,0.527163121 16.1256809,0.646498189 16.5160946,0.747924468 C17.5211152,1.00902053 19.4471559,2.39911348 20.2942446,2.90943761 C21.1413334,3.41976173 21.9381591,4.2623773 22.6847458,5.43730958 C23.4313325,6.61224187 23.9625497,7.98297564 24.2784133,9.54955202 C24.795281,12.1130406 25,13.8457317 25,17.0263565 C25,20.2069812 23.9891057,19.2642224 23.5067528,19.0819514 C23.0243999,18.8996804 22.0386644,17.0263565 22.0386644,17.0263565 C22.0386644,17.0263565 21.5648761,9.97680689 20.6172853,8.19660646 C19.5261202,6.10783795 17.1334698,3.75051727 15.4392923,3.13338112 C14.493603,2.7836659 12.5317498,2.58549827 11.5537109,2.53887428 Z" id="icon" transform="translate(15.053711, 25.326488) scale(-1, 1) translate(-15.053711, -25.326488) "></path>
        </g>
    </g>
</svg>