<?xml version="1.0" encoding="UTF-8"?>
<svg width="20px" height="48px" viewBox="0 0 20 48" version="1.1" xmlns="http://www.w3.org/2000/svg" xmlns:xlink="http://www.w3.org/1999/xlink">
    <!-- Generator: Sketch 41.1 (35376) - http://www.bohemiancoding.com/sketch -->
    <title>scroll</title>
    <desc>Created with Sketch.</desc>
    <defs></defs>
    <g id="Page-1" stroke="none" stroke-width="1" fill="none" fill-rule="evenodd">
        <g id="scroll" transform="translate(0.000000, -1.000000)" fill="#9DD0E0">
            <path d="M10.7368431,34.0321493 C10.1890508,33.8900358 9.85332326,33.1275995 9.85332326,33.1275995 C9.85332326,33.1275995 7.77776274,29.799225 5.81437558,26.3039568 C2.95344,21.2981708 1.4949457,18.3913457 1.43884892,17.5833942 L2.61687533,17.0037798 C3.17784309,17.0564723 4.01928211,18.2025166 5.14121763,20.4419472 C6.26315315,22.6813778 7.36403587,24.9251658 8.44389881,27.1733785 C9.52376175,29.4215912 10.2880689,30.5808084 10.7368431,30.6510651 L11.073422,29.676259 C11.073422,29.676259 11.8798057,27.8188694 12.5669912,25.5794388 C13.2541767,23.3400082 13.9904359,21.2147765 14.7757907,19.20368 C15.5611456,17.1925835 16.3184407,16.1870504 17.0476988,16.1870504 C17.7769569,16.1870504 18.1415805,16.3802532 18.1415805,16.7666648 C18.1415805,17.1530763 17.8330528,18.0268803 17.2159883,19.3881028 C16.5989238,20.7493253 16.0239404,21.9919711 15.4910211,23.1160775 C14.9581017,24.2401838 14.5584182,25.1095967 14.2919585,25.7243424 C14.0254988,26.3390881 13.7239831,27.1118996 13.3874025,28.0428001 C12.7142412,29.7992163 12.5669912,31.0652183 12.5669912,32.5933004 L12.5669912,33.6724371 C12.5669912,33.6724371 11.2846353,34.1742628 10.7368431,34.0321493 Z" id="arrow3"></path>
            <path d="M12.186397,48.8676997 C11.6386047,48.7255862 11.3028772,47.9631499 11.3028772,47.9631499 C11.3028772,47.9631499 9.94137862,44.5470997 7.97799145,41.0518315 C5.11705587,36.0460455 3.65856157,33.1392203 3.6024648,32.3312689 L4.78049121,31.7516545 C5.34145897,31.804347 6.18289799,32.9503913 7.30483351,35.1898219 C8.42676903,37.4292525 9.52765175,39.6730405 10.6075147,41.9212532 C11.6873776,44.1694658 12.4516847,45.3286831 12.9004589,45.3989398 L13.2370379,44.4241337 C13.2370379,44.4241337 14.0434216,42.5667441 14.7306071,40.3273135 C15.4177926,38.0878829 16.1540518,35.9626512 16.9394066,33.9515547 C17.7247615,31.9404582 18.4820566,30.934925 19.2113147,30.934925 C19.9405728,30.934925 20.3051964,31.1281279 20.3051964,31.5145395 C20.3051964,31.900951 19.9966687,32.774755 19.3796042,34.1359775 C18.7625396,35.4972 18.1875563,36.7398458 17.6546369,37.8639521 C17.1217176,38.9880585 16.722034,39.8574714 16.4555744,40.4722171 C16.1891147,41.0869627 15.887599,41.8597742 15.5510184,42.7906748 C14.877857,44.547091 14.3297382,45.4998999 14.3297382,47.0279819 C14.3297382,48.556064 14.0165451,48.3323459 14.0165451,48.5079875 C14.0165451,48.5079875 12.7341892,49.0098133 12.186397,48.8676997 Z" id="arrow2" transform="translate(11.953831, 39.913986) scale(-1, 1) rotate(7.000000) translate(-11.953831, -39.913986) "></path>
            <path d="M10.7368431,18.9242356 C10.1890508,18.7821221 9.85332326,18.0196858 9.85332326,18.0196858 C9.85332326,18.0196858 7.77776274,14.6913113 5.81437558,11.1960432 C2.95344,6.19025712 1.4949457,3.28343198 1.43884892,2.47548055 L2.61687533,1.89586612 C3.17784309,1.9485586 4.01928211,3.09460296 5.14121763,5.33403355 C6.26315315,7.57346415 7.36403587,9.81725214 8.44389881,12.0654648 C9.52376175,14.3136775 10.2880689,15.4728948 10.7368431,15.5431514 L11.073422,14.5683453 C11.073422,14.5683453 11.8798057,12.7109557 12.5669912,10.4715251 C13.2541767,8.23209452 13.9904359,6.10686285 14.7757907,4.09576636 C15.5611456,2.08466986 16.3184407,1.07913669 17.0476988,1.07913669 C17.7769569,1.07913669 18.1415805,1.27233957 18.1415805,1.65875112 C18.1415805,2.04516268 17.8330528,2.91896661 17.2159883,4.28018913 C16.5989238,5.64141165 16.0239404,6.88405744 15.4910211,8.00816378 C14.9581017,9.13227012 14.5584182,10.0016831 14.2919585,10.6164287 C14.0254988,11.2311744 13.7239831,12.0039859 13.3874025,12.9348865 C12.7142412,14.6913026 12.5669912,15.9573046 12.5669912,17.4853867 L12.5669912,18.5645234 C12.5669912,18.5645234 11.2846353,19.0663491 10.7368431,18.9242356 Z" id="arrow1" transform="translate(9.790215, 10.014360) scale(-1, 1) rotate(8.000000) translate(-9.790215, -10.014360) "></path>
        </g>
    </g>
</svg>