<svg xmlns="http://www.w3.org/2000/svg" viewBox="0 0 31 51">
  <g id="Page-1" fill="none" fill-rule="evenodd">
    <g id="replay" fill="#9DD0E0">
      <path id="icon" d="M18.554 2.54c.978.045 1.94.244 2.885.593 1.693.618 3.086 1.97 4.177 4.06.948 1.78 1.422 4.723 1.422 8.83 0 0-.518 12.72-.518 15.095 0 2.374-.216 4.83-.646 7.37-.287 1.685-.668 3.17-1.142 4.45-.473 1.282-1.155 2.392-2.046 3.33-.89.937-1.938 1.406-3.144 1.406H15.26c-1.206 0-2.254-.47-3.144-1.407-.89-.937-1.572-2.047-2.046-3.33-.474-1.28-.854-2.764-1.14-4.45-.36-2.112-.548-2.612-.6-4.088.458.86.965 1.944 1.523 3.247 1.392 3.256 2.16 5.447 2.304 6.573l1.034.326c1.178 0 1.767-.285 1.767-.855 0-.352-.41-1.176-1.228-2.472-.82-1.295-1.817-3.36-2.994-6.197-.546-1.355-.883-2.187-1.013-2.492-.13-.305-.337-.736-.624-1.292-.288-.556-.604-1.76-2.5-1.76-1.895 0-2.713 4.35-3.488 6.563-.26.745-.668 1.858-1.228 3.337-.56 1.478-.89 2.367-.99 2.666-.1.298-.266.64-.496 1.027-.23.387-.344.69-.344.906 0 .3.445.448 1.335.448 1.12 0 1.937-1.086 2.454-3.257.23-.99.517-2.445.86-4.365.165-.908.392-1.744.683-2.508-.06 1.57-.048 3.372.225 4.514 1.15 4.866 2.714 7.94 4.695 9.222.517.332 1.314.67 2.39 1.015 1.077.344 3.128 1.28 5.614 1.28 2.486 0 3.49-.936 4.567-1.28 1.077-.345 1.104-.683 1.62-1.015 1.982-1.282 3.547-4.356 4.695-9.222.575-2.397.862-6.835.862-13.315V17.16c0-3.18-.26-6.05-.776-8.615-.315-1.566-.847-2.937-1.593-4.112-.747-1.175-1.544-2.018-2.39-2.528-.848-.51-1.774-.896-2.78-1.157-.39-.102-1.23-.22-2.113-.33-.282-.122-4.415-.122-4.697 0-.882.11-1.723.228-2.114.33-1.004.26-2.93 1.65-3.777 2.16-.847.512-1.644 1.354-2.39 2.53C6.676 6.61 6.145 7.982 5.83 9.55c-.518 2.563-.723 4.296-.723 7.476 0 3.18 1.01 2.238 1.494 2.056.483-.182 1.47-2.056 1.47-2.056s.473-7.05 1.42-8.83c1.09-2.088 3.484-4.445 5.178-5.063.946-.35 2.908-.548 3.886-.594z"/>
    </g>
  </g>
</svg>
